# xmcd CD database file
#
# Track frame offsets:
#	150
#	23891
#	50895
#	73294
#	96922
#	122328
#	146552
#	168050
#	191443
#	212034
#	231602
#	251807
#	274247
#	297014
#	317760
#	333716
#
# Disc length: 4692 seconds
#
# Revision: 0
# Processed by: cddbd v1.5.2PL0 Copyright (c) Steve Scherf et al.
# Submitted via: CDex 1.51
#
DISCID=fe125210
DTITLE=Grupo Niche - Esencial de la Salsa
DYEAR=2009
DGENRE=Salsa
TTITLE0=Una aventura
TTITLE1=Como la quiero, cuanto la extraño
TTITLE2=Cara de niño
TTITLE3=Perdóname
TTITLE4=Aquel viejo motel
TTITLE5=Oiga, mire, vea
TTITLE6=Bastó una mirada
TTITLE7=Seda
TTITLE8=La fuga
TTITLE9=La loteria
TTITLE10=Loco de atar
TTITLE11=Déjala
TTITLE12=Vicio
TTITLE13=Amigo cuídala
TTITLE14=Dime que pasó
TTITLE15=Anhelo
EXTD=YEAR: 2009
EXTT0=
EXTT1=
EXTT2=
EXTT3=
EXTT4=
EXTT5=
EXTT6=
EXTT7=
EXTT8=
EXTT9=
EXTT10=
EXTT11=
EXTT12=
EXTT13=
EXTT14=
EXTT15=
PLAYORDER=
